<svg
    version="1.1"
    id="Layer_1"
    xmlns="http://www.w3.org/2000/svg"
    xmlns:xlink="http://www.w3.org/1999/xlink"
    x="0px"
    y="0px"
    viewBox="0 0 400 210"
    xml:space="preserve"
>
    <path
        fill="#F6F6F6"
        opacity="1.000000"
        stroke="none"
        d="
M148.111099,152.645462 
	C144.340866,155.596298 142.617462,151.951355 143.206223,150.165390 
	C146.089600,141.418671 140.024414,136.571228 136.248001,130.202316 
	C127.406639,115.291397 133.391037,103.333755 146.308212,93.937996 
	C151.444794,90.201729 157.510208,88.587051 163.622314,86.175713 
	C164.980011,87.178841 166.054428,87.560059 167.534866,87.126656 
	C176.172562,84.597954 184.780151,86.161430 193.771149,87.490433 
	C196.330109,89.041122 199.014252,88.592705 201.715836,89.480896 
	C202.734268,89.763527 203.238037,90.303596 204.244263,90.595284 
	C205.255096,91.287834 206.031403,91.633003 207.270935,91.615074 
	C207.919540,91.950821 208.237427,92.229340 208.753784,92.757820 
	C209.754303,93.702377 210.846954,93.919083 211.859924,94.845947 
	C212.913406,95.756676 213.966690,95.959320 215.207794,96.497559 
	C215.828918,96.864784 216.140915,97.135216 216.646561,97.650635 
	C217.153915,98.159195 217.443176,98.450912 217.956024,98.956421 
	C218.755310,99.778954 219.343994,100.374901 220.137085,101.226463 
	C220.520081,102.147972 220.732666,102.792358 221.512238,103.535446 
	C228.421753,113.020630 227.806290,123.570732 219.868256,132.119690 
	C219.093155,132.885056 218.571976,133.383240 218.311981,134.455322 
	C217.016144,135.789047 215.442825,136.243866 214.249420,137.745575 
	C213.416382,138.479004 212.689545,138.729630 211.915314,139.076187 
	C212.375732,138.819214 212.992706,138.692749 213.764282,138.178986 
	C215.042892,136.855194 216.261154,135.977356 217.867874,135.066284 
	C218.542892,134.302124 218.559631,133.561417 219.244995,132.777298 
	C227.777924,124.123459 228.710617,113.490105 221.747971,103.745331 
	C220.990814,103.020767 220.586441,102.481567 220.303391,101.483902 
	C219.708771,100.702484 219.249161,100.238693 218.558151,99.553543 
	C218.030975,99.026451 217.731400,98.724373 217.204224,98.200211 
	C216.680069,97.673241 216.379684,97.372169 215.824249,96.876007 
	C214.644180,96.120293 213.580215,95.879745 212.347412,95.229103 
	C211.490738,94.404083 210.766800,93.953362 209.693222,93.449371 
	C209.066772,93.043037 208.750046,92.755104 208.222229,92.220123 
	C207.303177,91.281120 206.355423,91.580597 205.263367,91.177155 
	C204.468399,90.503494 203.736618,90.464424 202.861847,89.908424 
	C200.213409,88.974747 197.772003,88.674500 195.033966,88.043381 
	C191.761292,86.849548 188.699356,86.652931 185.623001,86.436623 
	C183.901825,86.315590 181.995224,86.389404 180.876923,84.267807 
	C189.274384,70.528351 201.559143,64.013023 217.008835,62.985806 
	C230.374298,62.097168 242.400055,65.912666 252.644348,74.351433 
	C259.644592,80.117912 263.652435,88.215668 267.016113,96.541290 
	C267.372894,97.424370 267.674683,98.329666 267.941711,99.606537 
	C266.231873,102.201530 267.541870,104.501663 267.776733,106.730339 
	C268.003815,108.885139 268.427490,111.007133 267.967285,113.572784 
	C267.044525,119.555710 265.899597,125.066597 263.364807,130.196014 
	C261.651581,133.662888 262.308746,137.357132 262.595581,140.968658 
	C262.712921,142.446259 263.026886,143.923370 263.005768,145.417038 
	C262.951385,149.263077 261.627747,150.435104 258.604431,148.191147 
	C254.017258,144.786499 250.775940,146.081955 246.451233,148.738327 
	C228.898300,159.519836 211.206314,158.521149 193.356567,148.116959 
	C189.430878,146.569916 185.752136,147.775986 182.211700,147.889908 
	C176.179779,148.083984 170.255676,147.888580 164.604385,145.968384 
	C160.098587,144.437378 156.538483,145.850632 153.096375,148.253815 
	C151.367355,149.460968 149.359161,150.403610 148.111099,152.645462 
z"
    />
    <path
        fill="#F5F5F4"
        opacity="1.000000"
        stroke="none"
        d="
M229.290344,203.643982 
	C212.979156,203.900421 196.941772,203.953888 180.440308,203.927155 
	C179.796722,203.711868 179.617249,203.576767 179.170776,203.236084 
	C166.954575,203.165649 155.253357,201.552185 143.828674,198.024017 
	C142.609390,197.647476 141.399033,197.207855 140.241180,196.674500 
	C138.459732,195.853851 136.722687,195.156754 136.899109,192.485291 
	C137.053345,190.149612 138.218552,189.031250 140.036606,187.955521 
	C145.601608,184.662766 151.898010,183.843369 158.042313,183.101181 
	C168.958755,181.782547 179.906708,180.246323 191.435303,180.988510 
	C192.077133,180.832733 192.257339,180.695404 192.710510,180.355560 
	C199.687622,180.099579 206.391785,180.046127 213.559906,180.072845 
	C214.204239,180.288681 214.384598,180.424332 214.835983,180.762772 
	C230.531998,180.566757 245.804871,181.988937 260.914246,185.035278 
	C263.847260,185.626633 266.630951,186.952148 269.489471,187.921417 
	C271.484314,188.597809 273.069305,189.602585 273.018616,192.029465 
	C272.969543,194.377029 271.688232,195.866241 269.644196,196.766739 
	C262.972137,199.706131 255.867081,201.057327 248.716690,201.945358 
	C242.863281,202.672318 236.972610,203.527771 230.567169,203.018875 
	C229.927719,203.168335 229.745926,203.304657 229.290344,203.643982 
z"
    />
    <path
        fill="#EBB664"
        opacity="1.000000"
        stroke="none"
        d="
M115.185349,74.838646 
	C112.154213,78.630653 113.852654,82.415321 114.649315,86.041191 
	C114.971283,87.506569 115.153465,88.583229 113.939323,89.515747 
	C112.238960,90.821686 111.438599,89.103424 110.819084,88.226593 
	C106.953506,82.755440 101.764725,81.907341 95.797127,83.709831 
	C94.331093,84.152634 93.157578,84.032333 92.332626,82.766693 
	C91.400902,81.337250 92.781433,80.605850 93.567451,79.963196 
	C98.535072,75.901611 100.287277,70.986504 97.956596,64.822639 
	C97.652672,64.018852 96.291443,63.164211 97.514824,62.296066 
	C98.463699,61.622711 99.745522,61.849865 100.815178,62.377750 
	C101.242172,62.588486 101.646194,62.978516 101.900482,63.386719 
	C106.093864,70.118240 112.044220,68.923599 118.563065,67.091827 
	C119.977936,67.570709 120.523468,68.279831 120.245255,69.733253 
	C120.075493,70.056961 119.998848,70.005112 120.038101,70.027756 
	C119.393517,70.435150 118.678864,70.784729 118.195801,71.823685 
	C118.046654,72.078659 118.011642,72.010506 118.047943,72.022751 
	C117.803619,72.217110 117.547363,72.428398 117.176697,72.879021 
	C117.033852,73.084320 117.010498,73.011787 117.044418,73.029144 
	C116.391541,73.437378 115.671043,73.790512 115.185349,74.838646 
z"
    />
    <path
        fill="#F4B85B"
        opacity="1.000000"
        stroke="none"
        d="
M303.077789,104.699738 
	C303.080322,105.033195 302.985687,105.516556 302.908813,105.750519 
	C301.449524,106.743721 300.744781,108.962883 298.795349,108.359482 
	C296.577454,107.672989 297.869476,105.534302 297.482147,104.074303 
	C296.861542,101.735062 296.971954,99.098923 294.451538,97.206734 
	C293.602234,95.690109 292.547607,95.020317 291.100433,94.386368 
	C289.793701,92.788467 287.132721,92.026909 289.648621,89.357857 
	C292.380646,88.804947 294.778107,88.407135 297.536346,87.990486 
	C298.173798,87.785088 298.431152,87.574844 298.816681,87.139740 
	C298.964203,86.938538 298.997131,86.999702 298.970764,86.977051 
	C299.604980,86.556244 300.320465,86.220108 300.808167,85.202377 
	C300.967316,84.958199 300.998535,85.001244 300.977783,84.984268 
	C303.187927,83.649193 304.099823,80.771317 306.504456,79.763107 
	C307.950684,80.884445 307.487305,82.155197 307.483612,83.218910 
	C307.467163,87.971306 309.096466,91.901230 312.918823,94.822495 
	C314.009277,95.655891 314.979004,96.524300 314.573792,98.434769 
	C314.129608,99.156105 313.730194,99.391068 312.881958,99.455063 
	C307.756073,97.969742 305.648743,101.617004 303.077789,104.699738 
z"
    />
    <path
        fill="#BEBEBE"
        opacity="1.000000"
        stroke="none"
        d="
M192.761993,147.029266 
	C202.571762,151.823059 212.520248,155.902008 223.747589,154.964996 
	C233.372726,154.161682 242.280472,151.236206 249.681946,144.828247 
	C251.649368,143.124908 253.038834,143.273361 254.905869,144.532944 
	C256.943298,145.907501 259.065613,147.156250 261.035919,148.387955 
	C261.485260,147.972473 261.910797,147.717438 261.875519,147.591965 
	C258.592041,135.911942 264.492004,125.600243 266.884369,114.392075 
	C267.366333,113.671150 267.785767,113.510635 268.571655,113.761520 
	C268.923096,115.785645 269.675812,117.678749 268.082397,119.686607 
	C267.450073,122.234108 266.450531,124.294594 266.216888,126.914375 
	C266.052765,127.255798 266.101288,127.667068 266.009888,127.852852 
	C265.763397,128.206909 265.608307,128.375183 265.231689,128.805634 
	C265.072327,129.982864 264.942474,130.828995 264.031006,131.745667 
	C262.992584,136.069916 263.683258,140.138275 263.686707,144.555786 
	C265.393707,146.948151 265.775696,149.623367 264.573944,151.381989 
	C263.252014,153.316483 261.085052,151.256363 259.152771,150.407806 
	C258.563995,149.519684 257.907898,149.491135 257.028412,149.187531 
	C256.313934,148.751099 255.884964,148.448593 255.208313,148.032623 
	C254.724625,147.679993 254.470108,147.462540 253.969406,147.159775 
	C253.741776,147.052765 253.335892,147.101868 253.153030,147.010498 
	C252.823898,146.548462 252.589767,146.456680 252.181335,146.937744 
	C252.110367,147.182465 252.081238,147.073456 252.137604,147.075958 
	C251.863083,147.148773 251.593903,147.317520 251.210953,147.751907 
	C250.620605,148.253296 250.205688,148.587479 249.527298,148.985199 
	C248.951630,149.181107 248.664200,149.354523 248.218674,149.744080 
	C247.620804,150.253311 247.205811,150.587479 246.527313,150.985184 
	C245.951630,151.181107 245.664200,151.354523 245.218658,151.744064 
	C245.035782,151.919128 244.669525,152.101517 244.466644,152.075134 
	C243.951813,152.181473 243.664398,152.354874 243.218658,152.744064 
	C243.035782,152.919128 242.666183,153.101974 242.461426,153.077911 
	C241.403030,153.609879 240.393829,153.396652 239.221878,153.873810 
	C238.971420,154.130615 238.993011,153.982529 239.067413,153.990524 
	C238.854446,154.149750 238.601837,154.345764 238.209747,154.752808 
	C238.035507,154.919037 237.666046,155.101929 237.461319,155.077911 
	C236.439102,155.572418 235.501511,155.442825 234.322205,155.732056 
	C234.037537,155.919128 233.667191,156.101959 233.462112,156.077789 
	C231.423584,156.922195 229.449219,156.230011 227.268341,156.849823 
	C226.968857,157.132355 227.011856,157.000748 227.077362,157.023148 
	C223.031967,157.983032 218.869919,157.288788 214.294113,157.240875 
	C213.854019,157.047318 213.984451,157.000183 214.006989,157.065765 
	C212.676331,155.842773 210.958755,156.821075 209.105255,156.225327 
	C208.744049,156.052780 208.330795,156.101212 208.143921,156.009766 
	C207.195572,155.252182 206.208313,155.611389 205.050598,155.199722 
	C204.742615,155.053360 204.330536,155.101913 204.144318,155.010498 
	C203.493286,154.467712 202.853409,154.494339 202.017456,154.180984 
	C201.743576,154.053436 201.331970,154.101471 201.146118,154.009888 
	C200.724319,153.679672 200.470062,153.462509 199.970215,153.159607 
	C199.743073,153.052292 199.331955,153.101471 199.146194,153.010086 
	C198.724274,152.679932 198.469803,152.462616 197.969513,152.159729 
	C197.741989,152.052704 197.331467,152.101822 197.146042,152.010437 
	C196.724640,151.679993 196.470154,151.462570 195.969604,151.159775 
	C195.315536,150.750397 194.888992,150.448105 194.216034,150.031921 
	C193.572754,149.458511 193.435379,148.833847 192.823410,148.150909 
	C192.634445,147.701294 192.624008,147.498383 192.761993,147.029266 
z"
    />
    <path
        fill="#EBB664"
        opacity="1.000000"
        stroke="none"
        d="
M265.308105,66.756744 
	C264.901245,66.372116 264.741058,66.280685 264.662262,66.142761 
	C263.613312,64.306015 259.539886,65.579735 260.201996,62.488739 
	C260.754517,59.909286 263.910187,60.555946 265.855469,60.176628 
	C268.395264,59.681389 269.315338,58.118301 270.431091,56.242115 
	C271.156708,55.021931 272.207825,53.643414 274.013794,54.096397 
	C275.666321,54.510880 274.905548,55.995823 274.987915,56.996990 
	C275.409027,62.114021 278.928619,64.757210 283.509766,66.994919 
	C276.792419,67.575478 272.249268,70.412399 269.948608,76.321945 
	C266.673859,73.450600 268.103149,69.400253 265.308105,66.756744 
z"
    />
    <path
        fill="#EBB664"
        opacity="1.000000"
        stroke="none"
        d="
M106.002838,153.027039 
	C104.450974,155.524872 102.395462,155.562134 102.198311,153.057327 
	C101.833611,148.423767 100.624504,144.904221 95.874130,143.288895 
	C95.218628,143.065979 94.351639,142.004150 94.421989,141.434341 
	C94.541046,140.469986 95.551857,140.113937 96.642578,139.974091 
	C100.352119,139.498535 104.105339,139.110458 105.285721,134.444016 
	C105.651436,132.998230 107.252380,132.860245 108.672287,133.022461 
	C111.349197,133.328293 109.318398,134.978928 109.392632,135.894211 
	C109.822037,141.187943 113.455246,143.581299 118.624130,145.648895 
	C113.794212,147.854599 107.945518,147.019989 106.002838,153.027039 
z"
    />
    <path
        fill="#EBB664"
        opacity="1.000000"
        stroke="none"
        d="
M91.229713,110.195984 
	C89.492020,108.080261 87.798241,107.122337 85.366302,107.791977 
	C84.289276,108.088539 82.776825,108.477768 82.245560,107.252792 
	C81.768311,106.152390 81.658119,104.662849 82.919098,103.608253 
	C84.513000,102.275200 85.697876,100.887665 84.124771,98.633537 
	C83.733513,98.072906 83.588570,96.587715 84.852341,96.133095 
	C85.639244,95.850021 86.510712,96.001411 87.135818,96.685509 
	C88.919830,98.637871 90.693886,100.085289 93.535866,98.211708 
	C94.075981,97.855652 96.034203,98.626076 96.501114,99.389000 
	C97.598473,101.182053 95.253983,101.652534 94.320679,102.987823 
	C93.030243,104.591888 93.614822,106.230675 93.499146,107.786194 
	C93.401260,109.102509 93.466606,110.430908 91.229713,110.195984 
z"
    />
    <path
        fill="#E3E3E3"
        opacity="1.000000"
        stroke="none"
        d="
M192.624680,146.518799 
	C192.929123,146.958725 192.947815,147.154404 192.985840,147.644257 
	C193.146439,148.149490 193.287689,148.360519 193.179886,148.859741 
	C185.579147,149.112061 178.227463,149.076172 170.421783,148.955322 
	C169.791824,148.727707 169.615829,148.585037 169.171371,148.233994 
	C167.087677,148.164780 165.359314,147.846786 163.343140,146.955353 
	C162.491745,146.479034 161.885910,146.493423 161.085388,146.189697 
	C160.463272,146.052139 160.095688,146.053131 159.452454,146.050537 
	C158.897415,146.189651 158.638336,146.362778 158.214661,146.709961 
	C154.547867,148.224350 151.844345,150.820496 148.403091,152.891602 
	C146.809692,152.787796 145.321640,152.289886 147.160416,151.036118 
	C152.485901,147.404968 157.247070,142.387131 164.933731,144.955093 
	C173.870468,147.940720 183.140686,147.071350 192.624680,146.518799 
z"
    />
    <path
        fill="#2F4D82"
        opacity="1.000000"
        stroke="none"
        d="
M110.246231,116.431046 
	C106.870499,115.976585 103.494171,116.029182 106.795441,111.169914 
	C108.066338,110.027122 110.230209,111.148491 110.555664,108.953972 
	C110.762512,107.559265 111.532341,106.388420 113.140175,106.552498 
	C115.307861,106.773705 115.447685,108.522812 115.731041,110.550285 
	C117.869026,111.313148 120.610870,110.997810 120.753784,113.727707 
	C120.882607,116.188690 118.495148,115.921379 116.354218,116.064507 
	C114.794853,117.468475 116.577217,120.642052 113.344063,120.646622 
	C110.909447,120.650063 110.543953,118.729851 110.246231,116.431046 
z"
    />
    <path
        fill="#2F4D82"
        opacity="1.000000"
        stroke="none"
        d="
M287.482605,109.768646 
	C289.196960,112.210495 289.801575,114.500130 286.266754,114.809586 
	C283.435486,115.057449 284.291687,117.234314 283.249878,118.795700 
	C281.655853,119.679466 279.667206,119.826294 279.808929,118.359894 
	C280.222229,114.084732 276.584686,114.754845 274.258179,113.201218 
	C273.910706,112.988327 274.007202,112.992348 274.006836,113.040627 
	C273.118103,111.862617 273.673157,110.428375 274.663605,110.216873 
	C277.633270,109.582710 279.872498,108.914177 280.224823,105.103050 
	C280.324890,104.020821 283.427032,104.069992 283.383850,106.508095 
	C283.331757,109.449020 284.947296,109.671799 287.482605,109.768646 
z"
    />
    <path
        fill="#EBB664"
        opacity="1.000000"
        stroke="none"
        d="
M314.350616,99.144653 
	C313.833740,98.090584 313.943909,96.946793 313.461182,96.577072 
	C308.279297,92.607971 305.443390,87.698090 307.233734,80.752281 
	C304.530060,81.658455 304.563263,85.150391 301.320923,84.974800 
	C302.010864,82.823975 303.007660,80.649696 304.146515,78.552544 
	C304.604004,77.710083 305.355011,76.722763 306.489227,77.259949 
	C307.343689,77.664612 308.028778,78.483208 307.953339,79.633591 
	C307.823303,81.616508 308.841797,83.562256 308.813690,85.339905 
	C308.717285,91.437843 312.776184,93.792778 317.626343,96.077942 
	C318.929779,96.645531 319.808380,97.402542 319.217194,98.460060 
	C318.161041,100.349342 316.246979,99.225578 314.350616,99.144653 
z"
    />
    <path
        fill="#F5F5F4"
        opacity="1.000000"
        stroke="none"
        d="
M180.511749,83.917587 
	C183.043335,85.858078 185.669510,86.054634 188.351318,85.990417 
	C190.538696,85.938042 192.693283,85.948463 194.761826,87.703583 
	C185.221741,86.783318 175.470276,86.356316 165.766220,88.578918 
	C164.377289,88.897034 164.114136,87.942574 164.009857,86.507217 
	C164.758514,86.092285 165.518112,86.042870 166.498505,86.023506 
	C167.054565,85.929771 167.336700,85.730644 167.778091,85.299545 
	C169.347794,85.093666 170.705200,85.044563 172.470764,84.978226 
	C173.065460,84.826164 173.251984,84.691338 173.714478,84.349091 
	C176.020187,84.084938 178.049927,84.028214 180.511749,83.917587 
z"
    />
    <path
        fill="#FFFFFF"
        opacity="1.000000"
        stroke="none"
        d="
M297.245880,62.817467 
	C295.752747,63.017822 296.313568,61.378124 295.285797,61.055225 
	C292.531525,60.189899 292.065125,57.052547 293.689911,56.460461 
	C295.792816,55.694134 297.622223,48.573555 301.108490,55.232048 
	C301.873871,56.693813 305.546356,57.593342 303.600006,59.334396 
	C301.812347,60.933506 301.179993,65.163200 297.065125,63.352501 
	C298.076385,61.991196 298.855011,60.709820 299.538605,59.384022 
	C299.950714,58.584675 299.813019,57.755230 299.063782,57.157482 
	C298.648560,56.826195 298.120483,56.780693 297.678070,57.071564 
	C296.893890,57.587151 296.628632,58.364319 296.985413,59.227310 
	C297.430450,60.303757 298.040894,61.328445 297.245880,62.817467 
z"
    />
    <path
        fill="#EBB664"
        opacity="1.000000"
        stroke="none"
        d="
M294.210449,97.357437 
	C298.518890,97.672722 298.502350,101.469208 298.179535,104.172333 
	C297.491272,109.936127 300.135590,106.964211 302.493225,106.031815 
	C302.747894,106.288795 302.751160,106.667274 302.565796,106.885597 
	C301.184052,108.512894 301.381439,112.245346 298.524353,111.618629 
	C295.949463,111.053818 297.508789,107.884903 296.997864,105.930038 
	C296.270020,103.145164 296.113434,100.143539 294.210449,97.357437 
z"
    />
    <path
        fill="#E3E3E3"
        opacity="1.000000"
        stroke="none"
        d="
M268.918884,113.575836 
	C268.452637,113.993706 268.044647,114.016815 267.330505,114.037018 
	C266.950287,111.064941 266.927216,108.130264 266.171234,105.179115 
	C265.779083,103.648300 265.165710,101.520462 267.509644,100.093025 
	C268.191681,104.390541 270.834473,108.598946 268.918884,113.575836 
z"
    />
    <path
        fill="#EBB664"
        opacity="1.000000"
        stroke="none"
        d="
M303.396057,104.901199 
	C302.763489,104.972435 302.172455,104.923637 302.169220,104.849205 
	C302.023956,101.519531 308.333923,97.428413 311.915344,99.200058 
	C308.808624,100.726387 305.923859,102.181908 303.396057,104.901199 
z"
    />
    <path
        fill="#FFFFFF"
        opacity="1.000000"
        stroke="none"
        d="
M287.754089,109.568024 
	C285.346375,109.965088 282.249878,110.789474 282.951141,106.354172 
	C283.057831,105.679237 282.610748,105.138084 281.801819,105.066299 
	C281.116943,105.005524 280.076660,105.163483 280.185944,105.716003 
	C281.084045,110.256577 277.442963,109.778313 274.974426,110.701202 
	C274.534149,110.865814 274.359528,111.741089 274.034363,112.688568 
	C272.838623,109.701958 272.910583,109.331818 276.239075,109.095276 
	C278.208099,108.955353 279.394104,108.721245 279.014557,106.435150 
	C278.692780,104.496956 279.561615,103.921677 281.464844,103.949837 
	C283.250122,103.976250 284.375214,104.297470 283.984497,106.346817 
	C283.334564,109.755623 285.997925,108.787430 287.754089,109.568024 
z"
    />
    <path
        fill="#FFFFFF"
        opacity="1.000000"
        stroke="none"
        d="
M115.951294,110.477997 
	C114.342987,108.695091 113.047226,103.177681 110.626160,110.474800 
	C110.484512,110.901741 108.840103,110.830086 107.498871,111.000778 
	C107.125435,109.058945 110.205940,110.981667 109.995186,108.725327 
	C109.743599,106.031952 110.891357,104.617157 113.665802,105.037163 
	C116.866402,105.521690 115.796455,108.115105 115.951294,110.477997 
z"
    />
    <path
        fill="#FFFFFF"
        opacity="1.000000"
        stroke="none"
        d="
M110.026169,116.495499 
	C110.338654,116.388542 110.885582,116.679390 110.906281,117.003799 
	C111.026436,118.887550 111.828239,120.184242 113.828926,119.913704 
	C116.068153,119.610909 114.447128,117.445724 115.605621,116.247581 
	C115.967834,116.604752 115.973007,117.102409 115.988716,117.599731 
	C116.059441,119.837318 116.200356,122.106567 112.904167,122.001381 
	C109.134377,121.881065 110.186432,119.055077 110.026169,116.495499 
z"
    />
    <path
        fill="#EBB664"
        opacity="1.000000"
        stroke="none"
        d="
M289.586731,89.119232 
	C288.520142,90.940880 289.698212,92.209030 290.858704,93.793770 
	C288.340759,93.588730 286.228424,92.395889 284.977264,89.824287 
	C286.316711,88.459373 287.848236,89.260094 289.586731,89.119232 
z"
    />
    <path
        fill="#FFFFFF"
        opacity="1.000000"
        stroke="none"
        d="
M274.054993,113.358505 
	C277.115326,113.617302 280.731110,113.762398 280.374481,118.574051 
	C280.367188,118.672264 281.498474,118.854866 282.511078,118.993591 
	C281.687073,120.699715 279.037659,120.159752 279.261230,119.181587 
	C280.355072,114.395683 275.885193,115.462410 274.054993,113.358505 
z"
    />
    <path
        fill="#FFFFFF"
        opacity="1.000000"
        stroke="none"
        d="
M263.916656,144.477722 
	C262.135498,140.886734 263.140991,136.720978 263.597534,132.322220 
	C263.931976,136.042114 263.960602,140.033295 263.916656,144.477722 
z"
    />
    <path
        fill="#FFFFFF"
        opacity="1.000000"
        stroke="none"
        d="
M214.078323,157.425644 
	C217.966385,157.050064 222.078735,157.052795 226.666992,157.050537 
	C222.969864,159.111130 218.588058,157.641632 214.078323,157.425644 
z"
    />
    <path
        fill="#F5F5F4"
        opacity="1.000000"
        stroke="none"
        d="
M312.466614,99.904930 
	C312.024780,99.828484 312.041412,99.494896 312.058502,99.328941 
	C312.505188,99.113068 312.934784,99.063148 313.681641,98.944092 
	C318.213013,99.167900 318.213013,99.167900 318.118683,96.470200 
	C320.043304,95.588730 319.990417,96.910828 320.025482,98.324677 
	C320.057220,99.604004 319.524353,100.047249 318.310883,100.012672 
	C316.511230,99.961418 314.709351,99.987953 312.466614,99.904930 
z"
    />
    <path
        fill="#F6F6F6"
        opacity="1.000000"
        stroke="none"
        d="
M91.035805,110.352234 
	C94.969742,109.096481 91.947983,105.457123 93.679230,103.333664 
	C93.999435,105.087509 93.921906,107.050407 94.019547,109.004539 
	C94.139931,111.413773 92.788750,111.207245 91.035805,110.352234 
z"
    />
    <path
        fill="#FFFFFF"
        opacity="1.000000"
        stroke="none"
        d="
M266.379486,127.036842 
	C265.412445,124.797356 266.687286,122.686676 267.598846,120.250366 
	C268.623138,122.502190 266.935638,124.530441 266.379486,127.036842 
z"
    />
    <path
        fill="#FFFFFF"
        opacity="1.000000"
        stroke="none"
        d="
M227.386353,157.071350 
	C228.422882,155.132385 230.646103,156.521667 232.834641,155.975311 
	C231.711731,157.925278 229.603790,156.590103 227.386353,157.071350 
z"
    />
    <path
        fill="#FFFFFF"
        opacity="1.000000"
        stroke="none"
        d="
M208.971558,156.387238 
	C210.355194,156.189270 211.966324,156.325775 213.803497,156.796814 
	C212.419388,156.994812 210.809235,156.858261 208.971558,156.387238 
z"
    />
    <path
        fill="#F6F6F6"
        opacity="1.000000"
        stroke="none"
        d="
M120.417694,69.916794 
	C119.785851,69.287926 119.496208,68.518890 119.087448,67.454948 
	C121.739754,66.543541 121.045776,68.299797 120.417694,69.916794 
z"
    />
    <path
        fill="#FFFFFF"
        opacity="1.000000"
        stroke="none"
        d="
M204.938965,155.357666 
	C205.675018,155.148743 206.607407,155.244125 207.748428,155.628906 
	C207.016479,155.832855 206.075897,155.747406 204.938965,155.357666 
z"
    />
    <path
        fill="#FFFFFF"
        opacity="1.000000"
        stroke="none"
        d="
M239.336609,154.066010 
	C239.499481,153.056335 240.558411,153.057358 241.890549,152.962036 
	C241.721481,154.222916 240.658279,153.968292 239.336609,154.066010 
z"
    />
    <path
        fill="#FFFFFF"
        opacity="1.000000"
        stroke="none"
        d="
M234.398193,155.956787 
	C234.607574,154.921997 235.650986,155.066803 236.905823,154.964706 
	C236.738693,156.203094 235.704453,155.981049 234.398193,155.956787 
z"
    />
    <path
        fill="#F6F6F6"
        opacity="1.000000"
        stroke="none"
        d="
M118.337616,71.996078 
	C117.652565,70.842804 118.393005,70.276131 119.720627,69.947891 
	C119.594421,70.671432 119.111496,71.292458 118.337616,71.996078 
z"
    />
    <path
        fill="#EBB664"
        opacity="1.000000"
        stroke="none"
        d="
M300.683777,85.047546 
	C300.937134,85.904083 300.705750,86.709625 299.275269,86.931969 
	C299.429657,86.348557 299.914948,85.742722 300.683777,85.047546 
z"
    />
    <path
        fill="#F6F6F6"
        opacity="1.000000"
        stroke="none"
        d="
M115.315887,75.006157 
	C114.951477,74.030197 115.255157,73.202911 116.728127,72.962677 
	C116.589058,73.672791 116.099777,74.299072 115.315887,75.006157 
z"
    />
    <path
        fill="#FFFFFF"
        opacity="1.000000"
        stroke="none"
        d="
M256.919556,149.336700 
	C257.384399,149.186218 258.025909,149.318848 258.830933,149.756210 
	C258.361725,149.913910 257.728973,149.766861 256.919556,149.336700 
z"
    />
    <path
        fill="#FFFFFF"
        opacity="1.000000"
        stroke="none"
        d="
M193.012421,149.384521 
	C192.941193,148.946381 192.951538,148.744812 192.983521,148.240845 
	C193.364212,148.397018 193.723267,148.855591 194.025955,149.616089 
	C193.677734,149.819046 193.385864,149.720047 193.012421,149.384521 
z"
    />
    <path
        fill="#FFFFFF"
        opacity="1.000000"
        stroke="none"
        d="
M160.973129,146.343658 
	C161.416489,146.163681 162.002121,146.276215 162.775269,146.628937 
	C162.346985,146.791473 161.731201,146.713806 160.973129,146.343658 
z"
    />
    <path
        fill="#FFFFFF"
        opacity="1.000000"
        stroke="none"
        d="
M252.318726,147.095093 
	C251.928711,146.599777 251.747696,145.991806 252.521942,145.721710 
	C252.619537,145.687668 252.884995,146.134872 253.021423,146.639099 
	C252.970169,146.919128 252.527069,147.007721 252.318726,147.095093 
z"
    />
    <path
        fill="#FFFFFF"
        opacity="1.000000"
        stroke="none"
        d="
M201.917267,154.333435 
	C202.373932,154.148834 203.004303,154.244232 203.796371,154.629349 
	C203.335709,154.817184 202.713333,154.715302 201.917267,154.333435 
z"
    />
    <path
        fill="#FFFFFF"
        opacity="1.000000"
        stroke="none"
        d="
M199.883606,153.288055 
	C200.097397,153.160110 200.451721,153.267914 200.883148,153.647003 
	C200.648209,153.786804 200.336166,153.655304 199.883606,153.288055 
z"
    />
    <path
        fill="#FFFFFF"
        opacity="1.000000"
        stroke="none"
        d="
M238.310104,154.917450 
	C238.244904,154.683853 238.454285,154.448669 238.902740,154.105988 
	C238.956100,154.304306 238.770401,154.610092 238.310104,154.917450 
z"
    />
    <path
        fill="#FFFFFF"
        opacity="1.000000"
        stroke="none"
        d="
M248.312073,149.916351 
	C248.257477,149.652878 248.479187,149.386627 248.982330,149.084534 
	C249.038666,149.337006 248.813522,149.625305 248.312073,149.916351 
z"
    />
    <path
        fill="#FFFFFF"
        opacity="1.000000"
        stroke="none"
        d="
M192.714233,180.112076 
	C192.850830,180.453156 192.635651,180.672195 192.117432,180.890106 
	C192.079605,180.670425 192.262299,180.370773 192.714233,180.112076 
z"
    />
    <path
        fill="#FFFFFF"
        opacity="1.000000"
        stroke="none"
        d="
M215.028061,180.706818 
	C214.793564,180.899689 214.518143,180.759216 214.152328,180.348602 
	C214.332291,180.251373 214.640701,180.349731 215.028061,180.706818 
z"
    />
    <path
        fill="#FFFFFF"
        opacity="1.000000"
        stroke="none"
        d="
M178.977570,203.290833 
	C179.214615,203.099701 179.487427,203.241821 179.849243,203.651917 
	C179.667923,203.748367 179.359619,203.649765 178.977570,203.290833 
z"
    />
    <path
        fill="#FFFFFF"
        opacity="1.000000"
        stroke="none"
        d="
M229.285797,203.887939 
	C229.150497,203.546280 229.367188,203.327545 229.888062,203.111374 
	C229.924698,203.330978 229.739868,203.629944 229.285797,203.887939 
z"
    />
    <path
        fill="#FFFFFF"
        opacity="1.000000"
        stroke="none"
        d="
M243.312073,152.916382 
	C243.257507,152.652924 243.479248,152.386703 243.982361,152.084625 
	C244.038635,152.337021 243.813507,152.625320 243.312073,152.916382 
z"
    />
    <path
        fill="#FFFFFF"
        opacity="1.000000"
        stroke="none"
        d="
M197.882812,152.288452 
	C198.097397,152.159714 198.452805,152.266739 198.884308,152.646240 
	C198.648178,152.787201 198.335907,152.655701 197.882812,152.288452 
z"
    />
    <path
        fill="#FFFFFF"
        opacity="1.000000"
        stroke="none"
        d="
M245.312088,151.916382 
	C245.257553,151.652954 245.479324,151.386780 245.982452,151.084656 
	C246.038666,151.337021 245.813522,151.625320 245.312088,151.916382 
z"
    />
    <path
        fill="#FFFFFF"
        opacity="1.000000"
        stroke="none"
        d="
M195.882843,151.288544 
	C196.097855,151.159546 196.453644,151.266403 196.885025,151.646149 
	C196.648285,151.787506 196.335968,151.655945 195.882843,151.288544 
z"
    />
    <path
        fill="#EBB664"
        opacity="1.000000"
        stroke="none"
        d="
M298.707336,87.013062 
	C298.770111,87.218567 298.576050,87.498596 298.139526,87.875137 
	C298.081543,87.676964 298.265991,87.382278 298.707336,87.013062 
z"
    />
    <path
        fill="#FFFFFF"
        opacity="1.000000"
        stroke="none"
        d="
M168.975113,148.285217 
	C169.206436,148.121368 169.484787,148.265701 169.852875,148.664520 
	C169.660995,148.761871 169.354156,148.653351 168.975113,148.285217 
z"
    />
    <path
        fill="#FFFFFF"
        opacity="1.000000"
        stroke="none"
        d="
M253.882660,147.288589 
	C254.097610,147.159607 254.453461,147.266434 254.884964,147.646210 
	C254.648270,147.787552 254.335907,147.655991 253.882660,147.288589 
z"
    />
    <path
        fill="#FFFFFF"
        opacity="1.000000"
        stroke="none"
        d="
M251.302444,147.923035 
	C251.234085,147.637589 251.432648,147.356033 251.912598,147.076477 
	C251.985764,147.361282 251.777557,147.644119 251.302444,147.923035 
z"
    />
    <path
        fill="#FFFFFF"
        opacity="1.000000"
        stroke="none"
        d="
M158.299133,146.887619 
	C158.151382,146.524399 158.379471,146.306824 158.945435,146.123932 
	C158.974030,146.338486 158.771255,146.630035 158.299133,146.887619 
z"
    />
    <path
        fill="#F6F6F6"
        opacity="1.000000"
        stroke="none"
        d="
M117.300385,73.019852 
	C117.170128,72.717636 117.306396,72.350945 117.763451,72.009628 
	C117.911804,72.341805 117.739357,72.648598 117.300385,73.019852 
z"
    />
    <path
        fill="#F6F6F6"
        opacity="1.000000"
        stroke="none"
        d="
M167.694153,85.115234 
	C167.737106,85.387985 167.483826,85.633202 166.974915,85.965996 
	C166.945496,85.731613 167.171707,85.409660 167.694153,85.115234 
z"
    />
    <path
        fill="#FFFFFF"
        opacity="1.000000"
        stroke="none"
        d="
M265.273438,129.011353 
	C265.147858,128.760620 265.285553,128.453430 265.670868,128.092438 
	C265.791199,128.344055 265.663940,128.649490 265.273438,129.011353 
z"
    />
    <path
        fill="#F6F6F6"
        opacity="1.000000"
        stroke="none"
        d="
M173.717728,84.098373 
	C173.851196,84.443733 173.632706,84.668922 173.106949,84.889107 
	C173.067627,84.659019 173.256317,84.357048 173.717728,84.098373 
z"
    />
    <path
        fill="#E3E3E3"
        opacity="1.000000"
        stroke="none"
        d="
M219.352264,132.971893 
	C219.171295,132.356781 219.193024,131.578796 219.587875,131.126755 
	C227.240555,122.366142 226.889008,113.199638 221.042816,103.355675 
	C223.620544,103.012032 224.118408,105.215714 224.953217,106.945473 
	C229.522461,116.413315 227.207352,127.802765 219.352264,132.971893 
z"
    />
    <path
        fill="#E3E3E3"
        opacity="1.000000"
        stroke="none"
        d="
M199.905121,143.895996 
	C201.464523,143.339722 202.636795,142.608887 204.348450,143.468948 
	C201.760544,145.312927 199.130127,146.051178 195.968002,145.945145 
	C196.861404,144.356354 198.418137,144.564194 199.905121,143.895996 
z"
    />
    <path
        fill="#F5F5F4"
        opacity="1.000000"
        stroke="none"
        d="
M202.768158,89.712585 
	C200.346497,90.231155 197.855988,89.682144 195.232849,88.291260 
	C194.990326,88.015488 195.002060,87.997826 195.010330,87.989502 
	C197.604385,88.059433 200.296051,87.575912 202.768158,89.712585 
z"
    />
    <path
        fill="#E3E3E3"
        opacity="1.000000"
        stroke="none"
        d="
M214.325027,137.966766 
	C214.115219,135.931793 215.288544,135.022797 217.636566,134.999268 
	C217.266922,136.408615 216.292099,137.548599 214.325027,137.966766 
z"
    />
    <path
        fill="#E3E3E3"
        opacity="1.000000"
        stroke="none"
        d="
M212.158310,95.305252 
	C213.437866,94.917374 214.789383,95.052017 215.841797,96.695206 
	C214.570084,97.069916 213.211365,96.952667 212.158310,95.305252 
z"
    />
    <path
        fill="#E3E3E3"
        opacity="1.000000"
        stroke="none"
        d="
M210.348114,140.002502 
	C210.627930,138.563644 211.757675,137.944763 213.633514,137.981857 
	C213.979935,137.979553 213.997711,137.997589 214.005249,138.007370 
	C213.365692,139.433960 212.242599,140.064560 210.348114,140.002502 
z"
    />
    <path
        fill="#E3E3E3"
        opacity="1.000000"
        stroke="none"
        d="
M209.138855,93.289871 
	C210.136902,93.057785 211.416229,92.798882 211.955872,94.648499 
	C212.006546,94.993172 212.000061,94.999908 211.996979,95.003006 
	C210.845276,94.993355 209.922318,94.551559 209.138855,93.289871 
z"
    />
    <path
        fill="#E3E3E3"
        opacity="1.000000"
        stroke="none"
        d="
M210.006805,140.007080 
	C209.933121,140.664886 209.902847,141.381607 209.073334,141.511185 
	C208.894363,141.539139 208.654358,141.176422 208.442474,140.993668 
	C208.767029,140.683594 209.091599,140.373505 209.701630,140.025604 
	C209.987122,139.987793 210.000336,140.000351 210.006805,140.007080 
z"
    />
    <path
        fill="#E3E3E3"
        opacity="1.000000"
        stroke="none"
        d="
M219.956085,100.682663 
	C219.071091,100.952263 218.289810,100.697914 218.035461,99.320984 
	C218.915070,99.070274 219.700531,99.320000 219.956085,100.682663 
z"
    />
    <path
        fill="#E3E3E3"
        opacity="1.000000"
        stroke="none"
        d="
M207.792236,91.734940 
	C207.124390,91.838730 206.246292,91.680794 205.170074,91.236015 
	C205.841980,91.123856 206.711960,91.298531 207.792236,91.734940 
z"
    />
    <path
        fill="#E3E3E3"
        opacity="1.000000"
        stroke="none"
        d="
M220.004089,100.997223 
	C220.332733,101.459595 220.656738,101.925247 220.996857,102.688965 
	C221.012955,102.987022 221.001083,102.998993 220.995026,103.003372 
	C220.666870,102.540558 220.344803,102.073349 220.006378,101.308090 
	C219.990051,101.010025 219.999466,101.000504 220.004089,100.997223 
z"
    />
    <path
        fill="#E3E3E3"
        opacity="1.000000"
        stroke="none"
        d="
M217.991714,134.991791 
	C218.152435,134.429962 218.320023,133.875031 218.731720,133.151550 
	C218.975845,132.983002 219.003769,133.003937 219.016876,133.016785 
	C218.856049,133.580872 218.682114,134.132111 218.260590,134.846161 
	C218.013000,135.008987 217.998581,134.998703 217.991714,134.991791 
z"
    />
    <path
        fill="#F5F5F4"
        opacity="1.000000"
        stroke="none"
        d="
M203.014175,89.986160 
	C203.565918,90.142181 204.106079,90.309837 204.809113,90.713333 
	C204.971985,90.949181 204.995041,90.993004 204.969696,90.992706 
	C204.403152,90.827209 203.861969,90.662010 203.152237,90.260483 
	C202.983704,90.024147 203.002609,89.997795 203.014175,89.986160 
z"
    />
    <path
        fill="#E3E3E3"
        opacity="1.000000"
        stroke="none"
        d="
M207.998367,92.001244 
	C208.324310,92.097084 208.589279,92.281570 208.895233,92.778732 
	C208.998810,93.001526 209.000000,93.000000 209.000702,92.999435 
	C208.674072,92.903313 208.409317,92.718231 208.104828,92.220154 
	C208.002502,91.996674 208.000000,92.000000 207.998367,92.001244 
z"
    />
    <path
        fill="#E3E3E3"
        opacity="1.000000"
        stroke="none"
        d="
M216.894348,97.780296 
	C216.658447,97.922440 216.393631,97.736671 216.097504,97.228203 
	C215.998199,97.002380 216.000000,97.000000 216.001144,96.999146 
	C216.331116,97.089935 216.596176,97.273590 216.894348,97.780296 
z"
    />
    <path
        fill="#E3E3E3"
        opacity="1.000000"
        stroke="none"
        d="
M217.990967,99.007095 
	C217.652527,98.923813 217.389938,98.738342 217.093048,98.234314 
	C216.991211,98.011337 216.999847,98.000229 217.005310,97.995956 
	C217.334885,98.088692 217.596710,98.273804 217.904160,98.765656 
	C218.012085,98.984299 217.999283,99.000496 217.990967,99.007095 
z"
    />
    <path
        fill="#E3E3E3"
        opacity="1.000000"
        stroke="none"
        d="
M206.438202,142.530914 
	C206.399429,142.469070 206.476990,142.592743 206.438202,142.530914 
z"
    />
    <path
        fill="#2F4D82"
        opacity="1.000000"
        stroke="none"
        d="
M297.030914,63.049030 
	C296.873871,62.038616 297.553650,60.688290 296.121796,60.069374 
	C294.987518,59.579067 293.915253,57.821640 294.202637,57.775936 
	C296.448395,57.418716 296.573120,54.822014 297.972626,54.271381 
	C299.843018,53.535458 299.541168,56.702709 301.326202,57.193138 
	C302.301514,57.461109 302.283569,59.398117 301.522247,59.619633 
	C299.626221,60.171322 299.913940,63.012272 297.304138,62.956398 
	C296.936432,62.999622 297.027496,63.003582 297.030914,63.049030 
z"
    />
</svg>
